<svg xmlns="http://www.w3.org/2000/svg" xmlns:xlink="http://www.w3.org/1999/xlink" width="500" zoomAndPan="magnify" viewBox="0 0 375 374.999991" height="500" preserveAspectRatio="xMidYMid meet" version="1.0"><defs><g/><clipPath id="id1"><path d="M 217.566406 187.5 L 312 187.5 L 312 269.25 L 217.566406 269.25 Z M 217.566406 187.5 " clip-rule="nonzero"/></clipPath></defs><g fill="#ff8d55" fill-opacity="0.4"><g transform="translate(17.014429, 165.946835)"><g><path d="M 57.019531 -67.980469 L 5.949219 -67.980469 L 5.949219 -55.320312 L 25.152344 -55.320312 L 25.152344 0 L 37.8125 0 L 37.8125 -55.320312 L 57.019531 -55.320312 Z M 57.019531 -67.980469 "/></g></g></g><g fill="#ff8d55" fill-opacity="0.4"><g transform="translate(79.979223, 165.946835)"><g><path d="M 46.3125 -67.46875 L 46.3125 -36.453125 L 18.695312 -36.453125 L 18.695312 -67.46875 L 5.949219 -67.46875 L 5.949219 0.59375 L 18.695312 0.59375 L 18.695312 -23.792969 L 46.3125 -23.792969 L 46.3125 0.59375 L 58.972656 0.59375 L 58.972656 -67.46875 Z M 46.3125 -67.46875 "/></g></g></g><g fill="#ff8d55" fill-opacity="0.4"><g transform="translate(144.898393, 165.946835)"><g><path d="M 46.054688 0 L 59.3125 0 L 39.34375 -67.808594 L 39.34375 -67.980469 L 26.003906 -67.980469 L 5.949219 0 L 19.289062 0 L 24.304688 -16.910156 L 41.042969 -16.910156 Z M 28.042969 -29.570312 L 32.714844 -45.375 L 37.304688 -29.570312 Z M 28.042969 -29.570312 "/></g></g></g><g fill="#ff8d55" fill-opacity="0.4"><g transform="translate(210.157452, 165.946835)"><g><path d="M 57.019531 -67.980469 L 5.949219 -67.980469 L 5.949219 -55.320312 L 25.152344 -55.320312 L 25.152344 0 L 37.8125 0 L 37.8125 -55.320312 L 57.019531 -55.320312 Z M 57.019531 -67.980469 "/></g></g></g><g fill="#ff8d55" fill-opacity="0.4"><g transform="translate(273.122246, 165.946835)"><g><path d="M 0.851562 -46.054688 L 8.921875 -46.054688 L 8.921875 -67.980469 L 0.851562 -67.980469 Z M 0.851562 -46.054688 "/></g></g></g><g fill="#ff8d55" fill-opacity="0.4"><g transform="translate(282.894127, 165.946835)"><g><path d="M 34.160156 0.851562 L 35.691406 0.851562 C 50.304688 0.765625 58.632812 -8.753906 59.226562 -18.183594 C 59.90625 -28.042969 52.429688 -39.089844 34.414062 -41.382812 L 34.246094 -41.382812 C 27.703125 -42.148438 20.902344 -45.375 21.242188 -50.136719 C 21.5 -53.535156 26.597656 -56.679688 35.859375 -56.253906 L 36.113281 -56.253906 C 41.210938 -56.253906 47.332031 -53.789062 50.476562 -51.496094 L 57.78125 -61.691406 C 52.9375 -65.175781 44.441406 -68.746094 36.285156 -68.746094 C 18.269531 -69.679688 9.515625 -60.503906 8.753906 -51.15625 C 8.328125 -45.714844 10.621094 -40.363281 15.039062 -36.285156 C 19.375 -32.289062 25.578125 -29.742188 32.886719 -28.976562 C 42.828125 -27.617188 46.992188 -23.027344 46.734375 -19.035156 C 46.480469 -15.378906 42.574219 -11.726562 35.519531 -11.726562 L 35.09375 -11.726562 C 35.007812 -11.726562 25.746094 -11.214844 20.054688 -15.890625 C 18.609375 -16.996094 17.417969 -18.355469 16.316406 -19.96875 L 5.949219 -12.917969 C 7.648438 -10.367188 9.773438 -8.074219 12.152344 -6.117188 C 19.882812 0.171875 30.082031 0.851562 34.160156 0.851562 Z M 34.160156 0.851562 "/></g></g></g><g fill="#aad9ff" fill-opacity="1"><g transform="translate(21.972659, 164.043548)"><g><path d="M 57.019531 -67.980469 L 5.949219 -67.980469 L 5.949219 -55.320312 L 25.152344 -55.320312 L 25.152344 0 L 37.8125 0 L 37.8125 -55.320312 L 57.019531 -55.320312 Z M 57.019531 -67.980469 "/></g></g></g><g fill="#aad9ff" fill-opacity="1"><g transform="translate(84.937453, 164.043548)"><g><path d="M 46.3125 -67.46875 L 46.3125 -36.453125 L 18.695312 -36.453125 L 18.695312 -67.46875 L 5.949219 -67.46875 L 5.949219 0.59375 L 18.695312 0.59375 L 18.695312 -23.792969 L 46.3125 -23.792969 L 46.3125 0.59375 L 58.972656 0.59375 L 58.972656 -67.46875 Z M 46.3125 -67.46875 "/></g></g></g><g fill="#aad9ff" fill-opacity="1"><g transform="translate(149.856623, 164.043548)"><g><path d="M 46.054688 0 L 59.3125 0 L 39.34375 -67.808594 L 39.34375 -67.980469 L 26.003906 -67.980469 L 5.949219 0 L 19.289062 0 L 24.304688 -16.910156 L 41.042969 -16.910156 Z M 28.042969 -29.570312 L 32.714844 -45.375 L 37.304688 -29.570312 Z M 28.042969 -29.570312 "/></g></g></g><g fill="#aad9ff" fill-opacity="1"><g transform="translate(215.115683, 164.043548)"><g><path d="M 57.019531 -67.980469 L 5.949219 -67.980469 L 5.949219 -55.320312 L 25.152344 -55.320312 L 25.152344 0 L 37.8125 0 L 37.8125 -55.320312 L 57.019531 -55.320312 Z M 57.019531 -67.980469 "/></g></g></g><g fill="#aad9ff" fill-opacity="1"><g transform="translate(278.080476, 164.043548)"><g><path d="M 0.851562 -46.054688 L 8.921875 -46.054688 L 8.921875 -67.980469 L 0.851562 -67.980469 Z M 0.851562 -46.054688 "/></g></g></g><g fill="#aad9ff" fill-opacity="1"><g transform="translate(287.852357, 164.043548)"><g><path d="M 34.160156 0.851562 L 35.691406 0.851562 C 50.304688 0.765625 58.632812 -8.753906 59.226562 -18.183594 C 59.90625 -28.042969 52.429688 -39.089844 34.414062 -41.382812 L 34.246094 -41.382812 C 27.703125 -42.148438 20.902344 -45.375 21.242188 -50.136719 C 21.5 -53.535156 26.597656 -56.679688 35.859375 -56.253906 L 36.113281 -56.253906 C 41.210938 -56.253906 47.332031 -53.789062 50.476562 -51.496094 L 57.78125 -61.691406 C 52.9375 -65.175781 44.441406 -68.746094 36.285156 -68.746094 C 18.269531 -69.679688 9.515625 -60.503906 8.753906 -51.15625 C 8.328125 -45.714844 10.621094 -40.363281 15.039062 -36.285156 C 19.375 -32.289062 25.578125 -29.742188 32.886719 -28.976562 C 42.828125 -27.617188 46.992188 -23.027344 46.734375 -19.035156 C 46.480469 -15.378906 42.574219 -11.726562 35.519531 -11.726562 L 35.09375 -11.726562 C 35.007812 -11.726562 25.746094 -11.214844 20.054688 -15.890625 C 18.609375 -16.996094 17.417969 -18.355469 16.316406 -19.96875 L 5.949219 -12.917969 C 7.648438 -10.367188 9.773438 -8.074219 12.152344 -6.117188 C 19.882812 0.171875 30.082031 0.851562 34.160156 0.851562 Z M 34.160156 0.851562 "/></g></g></g><g fill="#000000" fill-opacity="0.4"><g transform="translate(15.173457, 255.678074)"><g><path d="M 46.230469 -69.78125 L 46.230469 -24.160156 C 46.230469 -17.097656 40.558594 -11.425781 33.582031 -11.425781 L 31.835938 -11.425781 C 24.859375 -11.425781 19.191406 -17.097656 19.191406 -24.160156 L 19.191406 -69.78125 L 6.105469 -69.78125 L 6.105469 -24.160156 C 6.105469 -10.03125 17.707031 1.570312 31.835938 1.570312 L 33.582031 1.570312 C 47.710938 1.570312 59.226562 -10.03125 59.226562 -24.160156 L 59.226562 -69.78125 Z M 46.230469 -69.78125 "/></g></g></g><g fill="#000000" fill-opacity="0.4"><g transform="translate(80.50316, 255.678074)"><g><path d="M 35.0625 0.871094 L 36.632812 0.871094 C 51.636719 0.785156 60.183594 -8.984375 60.796875 -18.667969 C 61.492188 -28.785156 53.816406 -40.125 35.324219 -42.480469 L 35.152344 -42.480469 C 28.433594 -43.261719 21.457031 -46.578125 21.804688 -51.460938 C 22.066406 -54.953125 27.300781 -58.179688 36.808594 -57.742188 L 37.070312 -57.742188 C 42.304688 -57.742188 48.585938 -55.214844 51.8125 -52.859375 L 59.3125 -63.324219 C 54.339844 -66.902344 45.617188 -70.566406 37.246094 -70.566406 C 18.753906 -71.523438 9.769531 -62.105469 8.984375 -52.507812 C 8.546875 -46.925781 10.902344 -41.433594 15.4375 -37.246094 C 19.886719 -33.144531 26.253906 -30.527344 33.757812 -29.742188 C 43.960938 -28.347656 48.234375 -23.636719 47.972656 -19.539062 C 47.710938 -15.789062 43.699219 -12.035156 36.460938 -12.035156 L 36.023438 -12.035156 C 35.9375 -12.035156 26.429688 -11.515625 20.585938 -16.3125 C 19.101562 -17.445312 17.882812 -18.839844 16.746094 -20.496094 L 6.105469 -13.257812 C 7.851562 -10.640625 10.03125 -8.285156 12.472656 -6.28125 C 20.410156 0.175781 30.878906 0.871094 35.0625 0.871094 Z M 35.0625 0.871094 "/></g></g></g><g fill="#000000" fill-opacity="0.4"><g transform="translate(147.402867, 255.678074)"><g><path d="M 13.082031 -15.003906 L 0 -15.003906 L 0 -69.78125 L 13.082031 -69.78125 Z M 13.082031 0 L 0 0 L 0 -12.910156 L 13.082031 -12.910156 Z M 13.082031 0 "/></g></g></g><g fill="#ffd28f" fill-opacity="1"><g transform="translate(18.750003, 251.563723)"><g><path d="M 46.230469 -69.78125 L 46.230469 -24.160156 C 46.230469 -17.097656 40.558594 -11.425781 33.582031 -11.425781 L 31.835938 -11.425781 C 24.859375 -11.425781 19.191406 -17.097656 19.191406 -24.160156 L 19.191406 -69.78125 L 6.105469 -69.78125 L 6.105469 -24.160156 C 6.105469 -10.03125 17.707031 1.570312 31.835938 1.570312 L 33.582031 1.570312 C 47.710938 1.570312 59.226562 -10.03125 59.226562 -24.160156 L 59.226562 -69.78125 Z M 46.230469 -69.78125 "/></g></g></g><g fill="#ffd28f" fill-opacity="1"><g transform="translate(84.079707, 251.563723)"><g><path d="M 35.0625 0.871094 L 36.632812 0.871094 C 51.636719 0.785156 60.183594 -8.984375 60.796875 -18.667969 C 61.492188 -28.785156 53.816406 -40.125 35.324219 -42.480469 L 35.152344 -42.480469 C 28.433594 -43.261719 21.457031 -46.578125 21.804688 -51.460938 C 22.066406 -54.953125 27.300781 -58.179688 36.808594 -57.742188 L 37.070312 -57.742188 C 42.304688 -57.742188 48.585938 -55.214844 51.8125 -52.859375 L 59.3125 -63.324219 C 54.339844 -66.902344 45.617188 -70.566406 37.246094 -70.566406 C 18.753906 -71.523438 9.769531 -62.105469 8.984375 -52.507812 C 8.546875 -46.925781 10.902344 -41.433594 15.4375 -37.246094 C 19.886719 -33.144531 26.253906 -30.527344 33.757812 -29.742188 C 43.960938 -28.347656 48.234375 -23.636719 47.972656 -19.539062 C 47.710938 -15.789062 43.699219 -12.035156 36.460938 -12.035156 L 36.023438 -12.035156 C 35.9375 -12.035156 26.429688 -11.515625 20.585938 -16.3125 C 19.101562 -17.445312 17.882812 -18.839844 16.746094 -20.496094 L 6.105469 -13.257812 C 7.851562 -10.640625 10.03125 -8.285156 12.472656 -6.28125 C 20.410156 0.175781 30.878906 0.871094 35.0625 0.871094 Z M 35.0625 0.871094 "/></g></g></g><g fill="#ffd28f" fill-opacity="1"><g transform="translate(150.979414, 251.563723)"><g><path d="M 13.082031 -15.003906 L 0 -15.003906 L 0 -69.78125 L 13.082031 -69.78125 Z M 13.082031 0 L 0 0 L 0 -12.910156 L 13.082031 -12.910156 Z M 13.082031 0 "/></g></g></g><g clip-path="url(#id1)"><path fill="#000000" d="M 271.460938 199.238281 C 269.226562 199.019531 266.96875 198.675781 264.730469 198.632812 C 258.886719 198.480469 253.167969 199.605469 247.40625 200.488281 C 245.34375 200.8125 244.355469 201.71875 243.429688 203.507812 C 240.25 209.636719 236.789062 215.613281 233.4375 221.632812 C 233.222656 222.042969 232.941406 222.558594 233.007812 222.96875 C 233.328125 224.867188 233.78125 226.722656 234.210938 228.773438 C 234.769531 228.34375 235.199219 228.019531 235.628906 227.71875 C 238.035156 225.925781 241.023438 226.292969 242.527344 228.578125 C 243.625 230.21875 243.496094 232.074219 242.164062 233.519531 C 239.390625 236.542969 236.597656 239.5625 233.78125 242.5625 C 232.425781 244.007812 230.125 244.265625 228.363281 243.230469 C 226.707031 242.257812 225.933594 240.339844 226.535156 238.375 C 226.792969 237.535156 227.222656 236.714844 227.761719 236.003906 C 228.75 234.6875 229.890625 233.476562 230.921875 232.183594 C 231.179688 231.859375 231.371094 231.296875 231.308594 230.910156 C 231.050781 229.484375 230.683594 228.082031 230.320312 226.679688 C 230.253906 226.421875 229.996094 226.097656 229.738281 225.992188 C 228.773438 225.601562 227.699219 225.386719 226.792969 224.890625 C 224.859375 223.832031 223.011719 222.625 221.121094 221.480469 C 220.582031 221.15625 220.046875 220.878906 219.464844 220.640625 C 218.003906 220.035156 217.617188 219.390625 218.195312 217.921875 C 218.863281 216.261719 219.617188 214.621094 220.410156 213.023438 C 223.613281 206.550781 227.160156 200.273438 231.15625 194.253906 C 231.824219 193.261719 232.597656 192.3125 233.4375 191.425781 C 234.769531 190.003906 235.886719 189.851562 237.433594 191.058594 C 239.519531 192.679688 241.539062 194.425781 243.472656 196.238281 C 244.421875 197.121094 245.214844 197.53125 246.632812 197.253906 C 252.265625 196.109375 257.960938 195.179688 263.722656 195.160156 C 268.558594 195.136719 273.351562 195.65625 277.609375 198.394531 C 278.660156 199.085938 279.734375 198.632812 280.488281 197.660156 C 282.832031 194.640625 285.195312 191.621094 287.667969 188.6875 C 288.65625 187.5 289.515625 187.542969 290.699219 188.558594 C 297.488281 194.425781 304.261719 200.292969 311.03125 206.164062 C 311.976562 206.984375 312.019531 207.867188 311.117188 208.859375 C 309.355469 210.800781 307.570312 212.742188 305.765625 214.640625 C 304.90625 215.546875 304.195312 216.367188 303.980469 217.75 C 303.488281 221.070312 302.542969 224.285156 300.304688 227.046875 C 300.949219 227.566406 301.445312 228.105469 302.046875 228.472656 C 304.496094 230.003906 304.863281 232.289062 304.261719 234.816406 C 303.421875 238.355469 301.1875 240.621094 297.683594 241.546875 C 297.039062 241.71875 296.824219 242 296.714844 242.710938 C 296.136719 246.683594 294.546875 250.027344 290.675781 251.839844 C 290.332031 251.988281 290.097656 252.613281 290.054688 253.046875 C 289.882812 255.183594 289.40625 257.210938 287.988281 258.914062 C 286.765625 260.382812 285.171875 261.289062 283.261719 261.375 C 282.335938 261.417969 282.058594 261.804688 281.84375 262.605469 C 280.894531 266.1875 276.960938 269.25 273.289062 269.078125 C 272.082031 269.011719 270.75 268.515625 269.761719 267.824219 C 265.871094 265.085938 262.109375 262.195312 258.285156 259.347656 C 258.199219 259.28125 258.113281 259.238281 257.917969 259.132812 C 257.167969 259.949219 256.433594 260.8125 255.640625 261.613281 C 253.40625 263.878906 249.859375 263.273438 248.484375 260.402344 C 247.835938 259.066406 247.859375 257.773438 248.933594 256.5625 C 251.597656 253.519531 254.285156 250.5 256.800781 247.351562 C 258.414062 245.34375 261.164062 245.582031 262.539062 246.640625 C 264.300781 247.976562 264.863281 250.628906 263.59375 252.484375 C 262.863281 253.566406 261.894531 254.472656 261.035156 255.464844 C 260.777344 255.765625 260.496094 256.066406 260.152344 256.457031 C 261.273438 257.339844 262.28125 258.203125 263.355469 259 C 266.171875 261.050781 269.007812 263.058594 271.847656 265.109375 C 272.75 265.753906 273.675781 265.839844 274.683594 265.429688 C 276.574219 264.699219 278.167969 263.640625 278.789062 261.527344 C 278.960938 260.898438 278.875 260.445312 278.402344 260.058594 C 274.792969 257.125 271.179688 254.210938 267.546875 251.300781 C 266.773438 250.695312 265.980469 250.15625 266.066406 248.992188 C 266.152344 247.996094 266.796875 247.394531 267.742188 247.675781 C 268.578125 247.910156 269.441406 248.300781 270.128906 248.839844 C 273.203125 251.300781 276.210938 253.824219 279.242188 256.328125 C 279.542969 256.5625 279.800781 256.824219 280.101562 257.058594 C 282.421875 258.914062 285.558594 257.859375 286.335938 254.96875 C 286.398438 254.707031 286.464844 254.425781 286.507812 254.167969 C 286.871094 252.507812 286.636719 251.191406 285.085938 250.046875 C 281.671875 247.523438 278.402344 244.828125 275.113281 242.152344 C 274.640625 241.761719 274.105469 241.289062 273.953125 240.75 C 273.804688 240.210938 273.890625 239.347656 274.253906 238.980469 C 274.597656 238.632812 275.414062 238.632812 276.015625 238.65625 C 276.382812 238.675781 276.726562 239.042969 277.046875 239.304688 C 280.488281 242.066406 283.925781 244.847656 287.367188 247.609375 C 289.128906 249.035156 289.859375 248.96875 291.300781 247.199219 C 292.503906 245.734375 293.382812 244.09375 293.40625 242.152344 C 293.40625 241.632812 293.125 240.984375 292.738281 240.640625 C 289.730469 238.050781 286.679688 235.527344 283.667969 232.9375 C 283.066406 232.441406 282.53125 231.835938 282.101562 231.191406 C 281.671875 230.566406 281.777344 229.746094 282.402344 229.335938 C 282.875 229.03125 283.667969 228.859375 284.183594 229.054688 C 284.9375 229.335938 285.582031 229.917969 286.207031 230.457031 C 288.957031 232.808594 291.707031 235.183594 294.394531 237.597656 C 295.382812 238.484375 296.371094 238.742188 297.46875 238.050781 C 298.394531 237.46875 299.382812 236.886719 300.046875 236.066406 C 301.660156 234.125 301.402344 232.3125 299.53125 230.671875 C 291.964844 224.007812 284.421875 217.339844 276.832031 210.738281 C 276.382812 210.347656 275.585938 210.109375 274.984375 210.199219 C 271.675781 210.628906 268.363281 211.105469 265.097656 211.6875 C 264.042969 211.878906 263.035156 212.417969 262.003906 212.828125 C 258.929688 214.082031 256.113281 213.519531 253.535156 211.621094 C 251.792969 210.347656 251.597656 208.644531 253.148438 207.113281 C 254.585938 205.6875 256.347656 204.585938 257.8125 203.183594 C 259.765625 201.308594 262.109375 200.617188 264.730469 200.421875 C 266.988281 200.25 269.226562 199.839844 271.480469 199.539062 C 271.460938 199.472656 271.460938 199.367188 271.460938 199.238281 Z M 235.824219 193.800781 C 230.105469 201.460938 225.914062 209.679688 221.808594 217.988281 C 224.367188 219.476562 226.75 220.878906 229.222656 222.324219 C 233.050781 215.332031 236.8125 208.472656 240.550781 201.609375 C 240.9375 200.898438 241.734375 200.078125 241.605469 199.453125 C 241.476562 198.761719 240.507812 198.222656 239.882812 197.640625 C 238.636719 196.410156 237.328125 195.203125 235.824219 193.800781 Z M 307.613281 207.628906 C 306.882812 207.027344 306.238281 206.507812 305.636719 205.96875 C 302.972656 203.574219 300.347656 201.136719 297.617188 198.785156 C 295.148438 196.648438 292.566406 194.597656 290.03125 192.546875 C 289.792969 192.355469 289.171875 192.269531 289.042969 192.398438 C 287.324219 194.402344 285.644531 196.453125 283.90625 198.546875 C 289.988281 203.59375 296.007812 208.601562 302.089844 213.648438 C 303.960938 211.644531 305.765625 209.679688 307.613281 207.628906 Z M 307.613281 207.628906 " fill-opacity="1" fill-rule="nonzero"/></g><path fill="#000000" d="M 253.296875 239.929688 C 255.554688 239.929688 257.402344 241.570312 257.445312 243.769531 C 257.46875 244.480469 257.1875 245.367188 256.738281 245.925781 C 253.554688 249.746094 250.308594 253.5 247.085938 257.277344 C 245.238281 259.433594 242.957031 259.800781 241.023438 258.289062 C 238.980469 256.671875 238.636719 253.929688 240.402344 251.773438 C 242.65625 249.035156 245.066406 246.421875 247.40625 243.746094 C 248.050781 243.015625 248.675781 242.28125 249.34375 241.589844 C 250.566406 240.339844 251.578125 239.929688 253.296875 239.929688 Z M 253.296875 239.929688 " fill-opacity="1" fill-rule="nonzero"/><path fill="#000000" d="M 237.21875 252.441406 C 233.714844 252.207031 231.652344 248.644531 233.414062 245.515625 C 234.425781 243.703125 235.84375 242.085938 237.21875 240.511719 C 238.980469 238.484375 240.851562 236.542969 242.699219 234.578125 C 243.925781 233.285156 246.289062 232.917969 247.859375 233.757812 C 249.472656 234.621094 250.4375 236.734375 249.945312 238.527344 C 249.816406 238.980469 249.558594 239.410156 249.234375 239.777344 C 245.816406 243.703125 242.398438 247.632812 238.9375 251.515625 C 238.507812 251.96875 237.800781 252.140625 237.21875 252.441406 Z M 237.21875 252.441406 " fill-opacity="1" fill-rule="nonzero"/></svg>